<mxfile host="app.diagrams.net" agent="Mozilla/5.0 (Windows NT 10.0; Win64; x64) AppleWebKit/537.36 (KHTML, like Gecko) Chrome/131.0.0.0 Safari/537.36 Edg/131.0.0.0" version="25.0.1">
  <diagram id="C5RBs43oDa-KdzZeNtuy" name="Page-1">
    <mxGraphModel dx="1498" dy="367" grid="1" gridSize="10" guides="1" tooltips="1" connect="1" arrows="1" fold="1" page="1" pageScale="1" pageWidth="827" pageHeight="1169" math="0" shadow="0">
      <root>
        <mxCell id="WIyWlLk6GJQsqaUBKTNV-0" />
        <mxCell id="WIyWlLk6GJQsqaUBKTNV-1" parent="WIyWlLk6GJQsqaUBKTNV-0" />
        <mxCell id="mvioNwK95yMqdUQ73LqQ-36" value="" style="swimlane;fontFamily=Sarabun;fontSource=https%3A%2F%2Ffonts.googleapis.com%2Fcss%3Ffamily%3DSarabun;" parent="WIyWlLk6GJQsqaUBKTNV-1" vertex="1">
          <mxGeometry x="-740" y="60" width="640" height="5300" as="geometry" />
        </mxCell>
        <mxCell id="mvioNwK95yMqdUQ73LqQ-35" value="&lt;font data-font-src=&quot;https://fonts.googleapis.com/css?family=Sarabun&quot; face=&quot;Sarabun&quot;&gt;Start&lt;/font&gt;" style="ellipse;whiteSpace=wrap;html=1;" parent="mvioNwK95yMqdUQ73LqQ-36" vertex="1">
          <mxGeometry x="255" y="40" width="130" height="30" as="geometry" />
        </mxCell>
        <mxCell id="QNhVIbcrn-Icenjs99R--4" style="edgeStyle=orthogonalEdgeStyle;rounded=0;orthogonalLoop=1;jettySize=auto;html=1;entryX=0.473;entryY=0.019;entryDx=0;entryDy=0;entryPerimeter=0;" parent="mvioNwK95yMqdUQ73LqQ-36" source="mvioNwK95yMqdUQ73LqQ-35" edge="1">
          <mxGeometry relative="1" as="geometry">
            <mxPoint x="320.3299999999999" y="111.71000000000004" as="targetPoint" />
          </mxGeometry>
        </mxCell>
        <mxCell id="kYYREl6K7aGs1Ha_kW6N-2" style="edgeStyle=orthogonalEdgeStyle;rounded=0;orthogonalLoop=1;jettySize=auto;html=1;" edge="1" parent="mvioNwK95yMqdUQ73LqQ-36" source="kYYREl6K7aGs1Ha_kW6N-0">
          <mxGeometry relative="1" as="geometry">
            <mxPoint x="321" y="210" as="targetPoint" />
          </mxGeometry>
        </mxCell>
        <mxCell id="kYYREl6K7aGs1Ha_kW6N-0" value="Declare input number as int&amp;nbsp;" style="rounded=0;whiteSpace=wrap;html=1;" vertex="1" parent="mvioNwK95yMqdUQ73LqQ-36">
          <mxGeometry x="231" y="113" width="180" height="60" as="geometry" />
        </mxCell>
        <mxCell id="kYYREl6K7aGs1Ha_kW6N-6" style="edgeStyle=orthogonalEdgeStyle;rounded=0;orthogonalLoop=1;jettySize=auto;html=1;" edge="1" parent="mvioNwK95yMqdUQ73LqQ-36" source="kYYREl6K7aGs1Ha_kW6N-1">
          <mxGeometry relative="1" as="geometry">
            <mxPoint x="320" y="300" as="targetPoint" />
          </mxGeometry>
        </mxCell>
        <mxCell id="kYYREl6K7aGs1Ha_kW6N-1" value="Read input number" style="shape=parallelogram;perimeter=parallelogramPerimeter;whiteSpace=wrap;html=1;fixedSize=1;" vertex="1" parent="mvioNwK95yMqdUQ73LqQ-36">
          <mxGeometry x="230" y="210" width="180" height="60" as="geometry" />
        </mxCell>
        <mxCell id="kYYREl6K7aGs1Ha_kW6N-8" style="edgeStyle=orthogonalEdgeStyle;rounded=0;orthogonalLoop=1;jettySize=auto;html=1;" edge="1" parent="mvioNwK95yMqdUQ73LqQ-36" source="kYYREl6K7aGs1Ha_kW6N-3">
          <mxGeometry relative="1" as="geometry">
            <mxPoint x="321" y="560" as="targetPoint" />
          </mxGeometry>
        </mxCell>
        <mxCell id="kYYREl6K7aGs1Ha_kW6N-9" style="edgeStyle=orthogonalEdgeStyle;rounded=0;orthogonalLoop=1;jettySize=auto;html=1;" edge="1" parent="mvioNwK95yMqdUQ73LqQ-36" source="kYYREl6K7aGs1Ha_kW6N-3">
          <mxGeometry relative="1" as="geometry">
            <mxPoint x="410" y="460" as="targetPoint" />
          </mxGeometry>
        </mxCell>
        <mxCell id="kYYREl6K7aGs1Ha_kW6N-3" value="case 1" style="rhombus;whiteSpace=wrap;html=1;" vertex="1" parent="mvioNwK95yMqdUQ73LqQ-36">
          <mxGeometry x="281" y="420" width="80" height="80" as="geometry" />
        </mxCell>
        <mxCell id="kYYREl6K7aGs1Ha_kW6N-10" style="edgeStyle=orthogonalEdgeStyle;rounded=0;orthogonalLoop=1;jettySize=auto;html=1;" edge="1" parent="mvioNwK95yMqdUQ73LqQ-36" source="kYYREl6K7aGs1Ha_kW6N-4">
          <mxGeometry relative="1" as="geometry">
            <mxPoint x="560" y="460" as="targetPoint" />
          </mxGeometry>
        </mxCell>
        <mxCell id="kYYREl6K7aGs1Ha_kW6N-4" value="Display &quot;One&quot;" style="shape=parallelogram;perimeter=parallelogramPerimeter;whiteSpace=wrap;html=1;fixedSize=1;" vertex="1" parent="mvioNwK95yMqdUQ73LqQ-36">
          <mxGeometry x="400" y="430" width="120" height="60" as="geometry" />
        </mxCell>
        <mxCell id="kYYREl6K7aGs1Ha_kW6N-7" style="edgeStyle=orthogonalEdgeStyle;rounded=0;orthogonalLoop=1;jettySize=auto;html=1;" edge="1" parent="mvioNwK95yMqdUQ73LqQ-36" source="kYYREl6K7aGs1Ha_kW6N-5">
          <mxGeometry relative="1" as="geometry">
            <mxPoint x="321" y="420" as="targetPoint" />
          </mxGeometry>
        </mxCell>
        <mxCell id="kYYREl6K7aGs1Ha_kW6N-5" value="input number" style="rounded=0;whiteSpace=wrap;html=1;" vertex="1" parent="mvioNwK95yMqdUQ73LqQ-36">
          <mxGeometry x="261" y="300" width="120" height="60" as="geometry" />
        </mxCell>
        <mxCell id="kYYREl6K7aGs1Ha_kW6N-11" style="edgeStyle=orthogonalEdgeStyle;rounded=0;orthogonalLoop=1;jettySize=auto;html=1;" edge="1" parent="mvioNwK95yMqdUQ73LqQ-36" source="kYYREl6K7aGs1Ha_kW6N-13">
          <mxGeometry relative="1" as="geometry">
            <mxPoint x="321" y="700" as="targetPoint" />
          </mxGeometry>
        </mxCell>
        <mxCell id="kYYREl6K7aGs1Ha_kW6N-12" style="edgeStyle=orthogonalEdgeStyle;rounded=0;orthogonalLoop=1;jettySize=auto;html=1;" edge="1" parent="mvioNwK95yMqdUQ73LqQ-36" source="kYYREl6K7aGs1Ha_kW6N-13">
          <mxGeometry relative="1" as="geometry">
            <mxPoint x="410" y="600" as="targetPoint" />
          </mxGeometry>
        </mxCell>
        <mxCell id="kYYREl6K7aGs1Ha_kW6N-13" value="case 2" style="rhombus;whiteSpace=wrap;html=1;" vertex="1" parent="mvioNwK95yMqdUQ73LqQ-36">
          <mxGeometry x="281" y="560" width="80" height="80" as="geometry" />
        </mxCell>
        <mxCell id="kYYREl6K7aGs1Ha_kW6N-14" style="edgeStyle=orthogonalEdgeStyle;rounded=0;orthogonalLoop=1;jettySize=auto;html=1;" edge="1" parent="mvioNwK95yMqdUQ73LqQ-36" source="kYYREl6K7aGs1Ha_kW6N-15">
          <mxGeometry relative="1" as="geometry">
            <mxPoint x="560" y="600" as="targetPoint" />
          </mxGeometry>
        </mxCell>
        <mxCell id="kYYREl6K7aGs1Ha_kW6N-15" value="Display &quot;Two&quot;" style="shape=parallelogram;perimeter=parallelogramPerimeter;whiteSpace=wrap;html=1;fixedSize=1;" vertex="1" parent="mvioNwK95yMqdUQ73LqQ-36">
          <mxGeometry x="400" y="570" width="120" height="60" as="geometry" />
        </mxCell>
        <mxCell id="kYYREl6K7aGs1Ha_kW6N-16" style="edgeStyle=orthogonalEdgeStyle;rounded=0;orthogonalLoop=1;jettySize=auto;html=1;" edge="1" parent="mvioNwK95yMqdUQ73LqQ-36" source="kYYREl6K7aGs1Ha_kW6N-18">
          <mxGeometry relative="1" as="geometry">
            <mxPoint x="321" y="844" as="targetPoint" />
          </mxGeometry>
        </mxCell>
        <mxCell id="kYYREl6K7aGs1Ha_kW6N-17" style="edgeStyle=orthogonalEdgeStyle;rounded=0;orthogonalLoop=1;jettySize=auto;html=1;" edge="1" parent="mvioNwK95yMqdUQ73LqQ-36" source="kYYREl6K7aGs1Ha_kW6N-18">
          <mxGeometry relative="1" as="geometry">
            <mxPoint x="410" y="744" as="targetPoint" />
          </mxGeometry>
        </mxCell>
        <mxCell id="kYYREl6K7aGs1Ha_kW6N-18" value="case 3" style="rhombus;whiteSpace=wrap;html=1;" vertex="1" parent="mvioNwK95yMqdUQ73LqQ-36">
          <mxGeometry x="281" y="704" width="80" height="80" as="geometry" />
        </mxCell>
        <mxCell id="kYYREl6K7aGs1Ha_kW6N-19" style="edgeStyle=orthogonalEdgeStyle;rounded=0;orthogonalLoop=1;jettySize=auto;html=1;" edge="1" parent="mvioNwK95yMqdUQ73LqQ-36" source="kYYREl6K7aGs1Ha_kW6N-20">
          <mxGeometry relative="1" as="geometry">
            <mxPoint x="560" y="744" as="targetPoint" />
          </mxGeometry>
        </mxCell>
        <mxCell id="kYYREl6K7aGs1Ha_kW6N-20" value="Display &quot;Three&quot;" style="shape=parallelogram;perimeter=parallelogramPerimeter;whiteSpace=wrap;html=1;fixedSize=1;" vertex="1" parent="mvioNwK95yMqdUQ73LqQ-36">
          <mxGeometry x="400" y="714" width="120" height="60" as="geometry" />
        </mxCell>
        <mxCell id="kYYREl6K7aGs1Ha_kW6N-21" style="edgeStyle=orthogonalEdgeStyle;rounded=0;orthogonalLoop=1;jettySize=auto;html=1;" edge="1" parent="mvioNwK95yMqdUQ73LqQ-36" source="kYYREl6K7aGs1Ha_kW6N-23">
          <mxGeometry relative="1" as="geometry">
            <mxPoint x="321" y="985" as="targetPoint" />
          </mxGeometry>
        </mxCell>
        <mxCell id="kYYREl6K7aGs1Ha_kW6N-22" style="edgeStyle=orthogonalEdgeStyle;rounded=0;orthogonalLoop=1;jettySize=auto;html=1;" edge="1" parent="mvioNwK95yMqdUQ73LqQ-36" source="kYYREl6K7aGs1Ha_kW6N-23">
          <mxGeometry relative="1" as="geometry">
            <mxPoint x="410" y="885" as="targetPoint" />
          </mxGeometry>
        </mxCell>
        <mxCell id="kYYREl6K7aGs1Ha_kW6N-23" value="case 4" style="rhombus;whiteSpace=wrap;html=1;" vertex="1" parent="mvioNwK95yMqdUQ73LqQ-36">
          <mxGeometry x="281" y="845" width="80" height="80" as="geometry" />
        </mxCell>
        <mxCell id="kYYREl6K7aGs1Ha_kW6N-24" style="edgeStyle=orthogonalEdgeStyle;rounded=0;orthogonalLoop=1;jettySize=auto;html=1;" edge="1" parent="mvioNwK95yMqdUQ73LqQ-36" source="kYYREl6K7aGs1Ha_kW6N-25">
          <mxGeometry relative="1" as="geometry">
            <mxPoint x="560" y="885" as="targetPoint" />
          </mxGeometry>
        </mxCell>
        <mxCell id="kYYREl6K7aGs1Ha_kW6N-25" value="Display &quot;Four&quot;" style="shape=parallelogram;perimeter=parallelogramPerimeter;whiteSpace=wrap;html=1;fixedSize=1;" vertex="1" parent="mvioNwK95yMqdUQ73LqQ-36">
          <mxGeometry x="400" y="855" width="120" height="60" as="geometry" />
        </mxCell>
        <mxCell id="kYYREl6K7aGs1Ha_kW6N-26" style="edgeStyle=orthogonalEdgeStyle;rounded=0;orthogonalLoop=1;jettySize=auto;html=1;" edge="1" parent="mvioNwK95yMqdUQ73LqQ-36" source="kYYREl6K7aGs1Ha_kW6N-28">
          <mxGeometry relative="1" as="geometry">
            <mxPoint x="321" y="1125" as="targetPoint" />
          </mxGeometry>
        </mxCell>
        <mxCell id="kYYREl6K7aGs1Ha_kW6N-27" style="edgeStyle=orthogonalEdgeStyle;rounded=0;orthogonalLoop=1;jettySize=auto;html=1;" edge="1" parent="mvioNwK95yMqdUQ73LqQ-36" source="kYYREl6K7aGs1Ha_kW6N-28">
          <mxGeometry relative="1" as="geometry">
            <mxPoint x="410" y="1025" as="targetPoint" />
          </mxGeometry>
        </mxCell>
        <mxCell id="kYYREl6K7aGs1Ha_kW6N-28" value="case 5" style="rhombus;whiteSpace=wrap;html=1;" vertex="1" parent="mvioNwK95yMqdUQ73LqQ-36">
          <mxGeometry x="281" y="985" width="80" height="80" as="geometry" />
        </mxCell>
        <mxCell id="kYYREl6K7aGs1Ha_kW6N-29" style="edgeStyle=orthogonalEdgeStyle;rounded=0;orthogonalLoop=1;jettySize=auto;html=1;" edge="1" parent="mvioNwK95yMqdUQ73LqQ-36" source="kYYREl6K7aGs1Ha_kW6N-30">
          <mxGeometry relative="1" as="geometry">
            <mxPoint x="560" y="1025" as="targetPoint" />
          </mxGeometry>
        </mxCell>
        <mxCell id="kYYREl6K7aGs1Ha_kW6N-30" value="Display &quot;Five&quot;" style="shape=parallelogram;perimeter=parallelogramPerimeter;whiteSpace=wrap;html=1;fixedSize=1;" vertex="1" parent="mvioNwK95yMqdUQ73LqQ-36">
          <mxGeometry x="400" y="995" width="120" height="60" as="geometry" />
        </mxCell>
        <mxCell id="kYYREl6K7aGs1Ha_kW6N-31" style="edgeStyle=orthogonalEdgeStyle;rounded=0;orthogonalLoop=1;jettySize=auto;html=1;" edge="1" parent="mvioNwK95yMqdUQ73LqQ-36" source="kYYREl6K7aGs1Ha_kW6N-33">
          <mxGeometry relative="1" as="geometry">
            <mxPoint x="321" y="1270" as="targetPoint" />
          </mxGeometry>
        </mxCell>
        <mxCell id="kYYREl6K7aGs1Ha_kW6N-32" style="edgeStyle=orthogonalEdgeStyle;rounded=0;orthogonalLoop=1;jettySize=auto;html=1;" edge="1" parent="mvioNwK95yMqdUQ73LqQ-36" source="kYYREl6K7aGs1Ha_kW6N-33">
          <mxGeometry relative="1" as="geometry">
            <mxPoint x="410" y="1170" as="targetPoint" />
          </mxGeometry>
        </mxCell>
        <mxCell id="kYYREl6K7aGs1Ha_kW6N-33" value="case 6" style="rhombus;whiteSpace=wrap;html=1;" vertex="1" parent="mvioNwK95yMqdUQ73LqQ-36">
          <mxGeometry x="281" y="1130" width="80" height="80" as="geometry" />
        </mxCell>
        <mxCell id="kYYREl6K7aGs1Ha_kW6N-34" style="edgeStyle=orthogonalEdgeStyle;rounded=0;orthogonalLoop=1;jettySize=auto;html=1;" edge="1" parent="mvioNwK95yMqdUQ73LqQ-36" source="kYYREl6K7aGs1Ha_kW6N-35">
          <mxGeometry relative="1" as="geometry">
            <mxPoint x="560" y="1170" as="targetPoint" />
          </mxGeometry>
        </mxCell>
        <mxCell id="kYYREl6K7aGs1Ha_kW6N-35" value="Display &quot;Six&quot;" style="shape=parallelogram;perimeter=parallelogramPerimeter;whiteSpace=wrap;html=1;fixedSize=1;" vertex="1" parent="mvioNwK95yMqdUQ73LqQ-36">
          <mxGeometry x="400" y="1140" width="120" height="60" as="geometry" />
        </mxCell>
        <mxCell id="kYYREl6K7aGs1Ha_kW6N-36" style="edgeStyle=orthogonalEdgeStyle;rounded=0;orthogonalLoop=1;jettySize=auto;html=1;" edge="1" parent="mvioNwK95yMqdUQ73LqQ-36" source="kYYREl6K7aGs1Ha_kW6N-38">
          <mxGeometry relative="1" as="geometry">
            <mxPoint x="321" y="1410" as="targetPoint" />
          </mxGeometry>
        </mxCell>
        <mxCell id="kYYREl6K7aGs1Ha_kW6N-37" style="edgeStyle=orthogonalEdgeStyle;rounded=0;orthogonalLoop=1;jettySize=auto;html=1;" edge="1" parent="mvioNwK95yMqdUQ73LqQ-36" source="kYYREl6K7aGs1Ha_kW6N-38">
          <mxGeometry relative="1" as="geometry">
            <mxPoint x="410" y="1310" as="targetPoint" />
          </mxGeometry>
        </mxCell>
        <mxCell id="kYYREl6K7aGs1Ha_kW6N-38" value="case 7" style="rhombus;whiteSpace=wrap;html=1;" vertex="1" parent="mvioNwK95yMqdUQ73LqQ-36">
          <mxGeometry x="281" y="1270" width="80" height="80" as="geometry" />
        </mxCell>
        <mxCell id="kYYREl6K7aGs1Ha_kW6N-39" style="edgeStyle=orthogonalEdgeStyle;rounded=0;orthogonalLoop=1;jettySize=auto;html=1;" edge="1" parent="mvioNwK95yMqdUQ73LqQ-36" source="kYYREl6K7aGs1Ha_kW6N-40">
          <mxGeometry relative="1" as="geometry">
            <mxPoint x="560" y="1310" as="targetPoint" />
          </mxGeometry>
        </mxCell>
        <mxCell id="kYYREl6K7aGs1Ha_kW6N-40" value="Display &quot;Seven&quot;" style="shape=parallelogram;perimeter=parallelogramPerimeter;whiteSpace=wrap;html=1;fixedSize=1;" vertex="1" parent="mvioNwK95yMqdUQ73LqQ-36">
          <mxGeometry x="400" y="1280" width="120" height="60" as="geometry" />
        </mxCell>
        <mxCell id="kYYREl6K7aGs1Ha_kW6N-41" style="edgeStyle=orthogonalEdgeStyle;rounded=0;orthogonalLoop=1;jettySize=auto;html=1;" edge="1" parent="mvioNwK95yMqdUQ73LqQ-36" source="kYYREl6K7aGs1Ha_kW6N-43">
          <mxGeometry relative="1" as="geometry">
            <mxPoint x="321" y="1550" as="targetPoint" />
          </mxGeometry>
        </mxCell>
        <mxCell id="kYYREl6K7aGs1Ha_kW6N-42" style="edgeStyle=orthogonalEdgeStyle;rounded=0;orthogonalLoop=1;jettySize=auto;html=1;" edge="1" parent="mvioNwK95yMqdUQ73LqQ-36" source="kYYREl6K7aGs1Ha_kW6N-43">
          <mxGeometry relative="1" as="geometry">
            <mxPoint x="410" y="1450" as="targetPoint" />
          </mxGeometry>
        </mxCell>
        <mxCell id="kYYREl6K7aGs1Ha_kW6N-43" value="case 8" style="rhombus;whiteSpace=wrap;html=1;" vertex="1" parent="mvioNwK95yMqdUQ73LqQ-36">
          <mxGeometry x="281" y="1410" width="80" height="80" as="geometry" />
        </mxCell>
        <mxCell id="kYYREl6K7aGs1Ha_kW6N-44" style="edgeStyle=orthogonalEdgeStyle;rounded=0;orthogonalLoop=1;jettySize=auto;html=1;" edge="1" parent="mvioNwK95yMqdUQ73LqQ-36" source="kYYREl6K7aGs1Ha_kW6N-45">
          <mxGeometry relative="1" as="geometry">
            <mxPoint x="560" y="1450" as="targetPoint" />
          </mxGeometry>
        </mxCell>
        <mxCell id="kYYREl6K7aGs1Ha_kW6N-45" value="Display &quot;Eight&quot;" style="shape=parallelogram;perimeter=parallelogramPerimeter;whiteSpace=wrap;html=1;fixedSize=1;" vertex="1" parent="mvioNwK95yMqdUQ73LqQ-36">
          <mxGeometry x="400" y="1420" width="120" height="60" as="geometry" />
        </mxCell>
        <mxCell id="kYYREl6K7aGs1Ha_kW6N-46" style="edgeStyle=orthogonalEdgeStyle;rounded=0;orthogonalLoop=1;jettySize=auto;html=1;" edge="1" parent="mvioNwK95yMqdUQ73LqQ-36" source="kYYREl6K7aGs1Ha_kW6N-48">
          <mxGeometry relative="1" as="geometry">
            <mxPoint x="320" y="1690" as="targetPoint" />
          </mxGeometry>
        </mxCell>
        <mxCell id="kYYREl6K7aGs1Ha_kW6N-47" style="edgeStyle=orthogonalEdgeStyle;rounded=0;orthogonalLoop=1;jettySize=auto;html=1;" edge="1" parent="mvioNwK95yMqdUQ73LqQ-36" source="kYYREl6K7aGs1Ha_kW6N-48">
          <mxGeometry relative="1" as="geometry">
            <mxPoint x="409" y="1590" as="targetPoint" />
          </mxGeometry>
        </mxCell>
        <mxCell id="kYYREl6K7aGs1Ha_kW6N-48" value="case 9" style="rhombus;whiteSpace=wrap;html=1;" vertex="1" parent="mvioNwK95yMqdUQ73LqQ-36">
          <mxGeometry x="280" y="1550" width="80" height="80" as="geometry" />
        </mxCell>
        <mxCell id="kYYREl6K7aGs1Ha_kW6N-49" style="edgeStyle=orthogonalEdgeStyle;rounded=0;orthogonalLoop=1;jettySize=auto;html=1;" edge="1" parent="mvioNwK95yMqdUQ73LqQ-36" source="kYYREl6K7aGs1Ha_kW6N-50">
          <mxGeometry relative="1" as="geometry">
            <mxPoint x="559" y="1590" as="targetPoint" />
          </mxGeometry>
        </mxCell>
        <mxCell id="kYYREl6K7aGs1Ha_kW6N-50" value="Display &quot;Nine&quot;" style="shape=parallelogram;perimeter=parallelogramPerimeter;whiteSpace=wrap;html=1;fixedSize=1;" vertex="1" parent="mvioNwK95yMqdUQ73LqQ-36">
          <mxGeometry x="399" y="1560" width="120" height="60" as="geometry" />
        </mxCell>
        <mxCell id="kYYREl6K7aGs1Ha_kW6N-111" style="edgeStyle=orthogonalEdgeStyle;rounded=0;orthogonalLoop=1;jettySize=auto;html=1;" edge="1" parent="mvioNwK95yMqdUQ73LqQ-36" source="kYYREl6K7aGs1Ha_kW6N-113">
          <mxGeometry relative="1" as="geometry">
            <mxPoint x="320" y="1976" as="targetPoint" />
          </mxGeometry>
        </mxCell>
        <mxCell id="kYYREl6K7aGs1Ha_kW6N-112" style="edgeStyle=orthogonalEdgeStyle;rounded=0;orthogonalLoop=1;jettySize=auto;html=1;" edge="1" parent="mvioNwK95yMqdUQ73LqQ-36" source="kYYREl6K7aGs1Ha_kW6N-113">
          <mxGeometry relative="1" as="geometry">
            <mxPoint x="409" y="1876" as="targetPoint" />
          </mxGeometry>
        </mxCell>
        <mxCell id="kYYREl6K7aGs1Ha_kW6N-113" value="case 11" style="rhombus;whiteSpace=wrap;html=1;" vertex="1" parent="mvioNwK95yMqdUQ73LqQ-36">
          <mxGeometry x="280" y="1836" width="80" height="80" as="geometry" />
        </mxCell>
        <mxCell id="kYYREl6K7aGs1Ha_kW6N-114" style="edgeStyle=orthogonalEdgeStyle;rounded=0;orthogonalLoop=1;jettySize=auto;html=1;" edge="1" parent="mvioNwK95yMqdUQ73LqQ-36" source="kYYREl6K7aGs1Ha_kW6N-115">
          <mxGeometry relative="1" as="geometry">
            <mxPoint x="559" y="1876" as="targetPoint" />
          </mxGeometry>
        </mxCell>
        <mxCell id="kYYREl6K7aGs1Ha_kW6N-115" value="Display &quot;Eleven&quot;" style="shape=parallelogram;perimeter=parallelogramPerimeter;whiteSpace=wrap;html=1;fixedSize=1;" vertex="1" parent="mvioNwK95yMqdUQ73LqQ-36">
          <mxGeometry x="399" y="1846" width="120" height="60" as="geometry" />
        </mxCell>
        <mxCell id="kYYREl6K7aGs1Ha_kW6N-116" style="edgeStyle=orthogonalEdgeStyle;rounded=0;orthogonalLoop=1;jettySize=auto;html=1;" edge="1" parent="mvioNwK95yMqdUQ73LqQ-36" source="kYYREl6K7aGs1Ha_kW6N-118">
          <mxGeometry relative="1" as="geometry">
            <mxPoint x="319" y="2117" as="targetPoint" />
          </mxGeometry>
        </mxCell>
        <mxCell id="kYYREl6K7aGs1Ha_kW6N-117" style="edgeStyle=orthogonalEdgeStyle;rounded=0;orthogonalLoop=1;jettySize=auto;html=1;" edge="1" parent="mvioNwK95yMqdUQ73LqQ-36" source="kYYREl6K7aGs1Ha_kW6N-118">
          <mxGeometry relative="1" as="geometry">
            <mxPoint x="408" y="2017" as="targetPoint" />
          </mxGeometry>
        </mxCell>
        <mxCell id="kYYREl6K7aGs1Ha_kW6N-118" value="case 12" style="rhombus;whiteSpace=wrap;html=1;" vertex="1" parent="mvioNwK95yMqdUQ73LqQ-36">
          <mxGeometry x="279" y="1977" width="80" height="80" as="geometry" />
        </mxCell>
        <mxCell id="kYYREl6K7aGs1Ha_kW6N-119" style="edgeStyle=orthogonalEdgeStyle;rounded=0;orthogonalLoop=1;jettySize=auto;html=1;" edge="1" parent="mvioNwK95yMqdUQ73LqQ-36" source="kYYREl6K7aGs1Ha_kW6N-120">
          <mxGeometry relative="1" as="geometry">
            <mxPoint x="558" y="2017" as="targetPoint" />
          </mxGeometry>
        </mxCell>
        <mxCell id="kYYREl6K7aGs1Ha_kW6N-120" value="Display &quot;Twelve&quot;" style="shape=parallelogram;perimeter=parallelogramPerimeter;whiteSpace=wrap;html=1;fixedSize=1;" vertex="1" parent="mvioNwK95yMqdUQ73LqQ-36">
          <mxGeometry x="398" y="1987" width="120" height="60" as="geometry" />
        </mxCell>
        <mxCell id="kYYREl6K7aGs1Ha_kW6N-121" style="edgeStyle=orthogonalEdgeStyle;rounded=0;orthogonalLoop=1;jettySize=auto;html=1;" edge="1" parent="mvioNwK95yMqdUQ73LqQ-36" source="kYYREl6K7aGs1Ha_kW6N-123">
          <mxGeometry relative="1" as="geometry">
            <mxPoint x="319" y="2260" as="targetPoint" />
          </mxGeometry>
        </mxCell>
        <mxCell id="kYYREl6K7aGs1Ha_kW6N-122" style="edgeStyle=orthogonalEdgeStyle;rounded=0;orthogonalLoop=1;jettySize=auto;html=1;" edge="1" parent="mvioNwK95yMqdUQ73LqQ-36" source="kYYREl6K7aGs1Ha_kW6N-123">
          <mxGeometry relative="1" as="geometry">
            <mxPoint x="408" y="2160" as="targetPoint" />
          </mxGeometry>
        </mxCell>
        <mxCell id="kYYREl6K7aGs1Ha_kW6N-123" value="case 13" style="rhombus;whiteSpace=wrap;html=1;" vertex="1" parent="mvioNwK95yMqdUQ73LqQ-36">
          <mxGeometry x="279" y="2120" width="80" height="80" as="geometry" />
        </mxCell>
        <mxCell id="kYYREl6K7aGs1Ha_kW6N-124" style="edgeStyle=orthogonalEdgeStyle;rounded=0;orthogonalLoop=1;jettySize=auto;html=1;" edge="1" parent="mvioNwK95yMqdUQ73LqQ-36" source="kYYREl6K7aGs1Ha_kW6N-125">
          <mxGeometry relative="1" as="geometry">
            <mxPoint x="558" y="2160" as="targetPoint" />
          </mxGeometry>
        </mxCell>
        <mxCell id="kYYREl6K7aGs1Ha_kW6N-125" value="Display &quot;Thirteen&quot;" style="shape=parallelogram;perimeter=parallelogramPerimeter;whiteSpace=wrap;html=1;fixedSize=1;" vertex="1" parent="mvioNwK95yMqdUQ73LqQ-36">
          <mxGeometry x="398" y="2130" width="120" height="60" as="geometry" />
        </mxCell>
        <mxCell id="kYYREl6K7aGs1Ha_kW6N-131" style="edgeStyle=orthogonalEdgeStyle;rounded=0;orthogonalLoop=1;jettySize=auto;html=1;" edge="1" parent="mvioNwK95yMqdUQ73LqQ-36" source="kYYREl6K7aGs1Ha_kW6N-133">
          <mxGeometry relative="1" as="geometry">
            <mxPoint x="319" y="2400" as="targetPoint" />
          </mxGeometry>
        </mxCell>
        <mxCell id="kYYREl6K7aGs1Ha_kW6N-132" style="edgeStyle=orthogonalEdgeStyle;rounded=0;orthogonalLoop=1;jettySize=auto;html=1;" edge="1" parent="mvioNwK95yMqdUQ73LqQ-36" source="kYYREl6K7aGs1Ha_kW6N-133">
          <mxGeometry relative="1" as="geometry">
            <mxPoint x="408" y="2300" as="targetPoint" />
          </mxGeometry>
        </mxCell>
        <mxCell id="kYYREl6K7aGs1Ha_kW6N-133" value="case 14" style="rhombus;whiteSpace=wrap;html=1;" vertex="1" parent="mvioNwK95yMqdUQ73LqQ-36">
          <mxGeometry x="279" y="2260" width="80" height="80" as="geometry" />
        </mxCell>
        <mxCell id="kYYREl6K7aGs1Ha_kW6N-134" style="edgeStyle=orthogonalEdgeStyle;rounded=0;orthogonalLoop=1;jettySize=auto;html=1;" edge="1" parent="mvioNwK95yMqdUQ73LqQ-36" source="kYYREl6K7aGs1Ha_kW6N-135">
          <mxGeometry relative="1" as="geometry">
            <mxPoint x="558" y="2300" as="targetPoint" />
          </mxGeometry>
        </mxCell>
        <mxCell id="kYYREl6K7aGs1Ha_kW6N-135" value="Display &quot;Fourteen&quot;" style="shape=parallelogram;perimeter=parallelogramPerimeter;whiteSpace=wrap;html=1;fixedSize=1;" vertex="1" parent="mvioNwK95yMqdUQ73LqQ-36">
          <mxGeometry x="398" y="2270" width="120" height="60" as="geometry" />
        </mxCell>
        <mxCell id="kYYREl6K7aGs1Ha_kW6N-136" style="edgeStyle=orthogonalEdgeStyle;rounded=0;orthogonalLoop=1;jettySize=auto;html=1;" edge="1" parent="mvioNwK95yMqdUQ73LqQ-36" source="kYYREl6K7aGs1Ha_kW6N-138">
          <mxGeometry relative="1" as="geometry">
            <mxPoint x="318" y="2540" as="targetPoint" />
          </mxGeometry>
        </mxCell>
        <mxCell id="kYYREl6K7aGs1Ha_kW6N-137" style="edgeStyle=orthogonalEdgeStyle;rounded=0;orthogonalLoop=1;jettySize=auto;html=1;" edge="1" parent="mvioNwK95yMqdUQ73LqQ-36" source="kYYREl6K7aGs1Ha_kW6N-138">
          <mxGeometry relative="1" as="geometry">
            <mxPoint x="407" y="2440" as="targetPoint" />
          </mxGeometry>
        </mxCell>
        <mxCell id="kYYREl6K7aGs1Ha_kW6N-138" value="case 15" style="rhombus;whiteSpace=wrap;html=1;" vertex="1" parent="mvioNwK95yMqdUQ73LqQ-36">
          <mxGeometry x="278" y="2400" width="80" height="80" as="geometry" />
        </mxCell>
        <mxCell id="kYYREl6K7aGs1Ha_kW6N-139" style="edgeStyle=orthogonalEdgeStyle;rounded=0;orthogonalLoop=1;jettySize=auto;html=1;" edge="1" parent="mvioNwK95yMqdUQ73LqQ-36" source="kYYREl6K7aGs1Ha_kW6N-140">
          <mxGeometry relative="1" as="geometry">
            <mxPoint x="557" y="2440" as="targetPoint" />
          </mxGeometry>
        </mxCell>
        <mxCell id="kYYREl6K7aGs1Ha_kW6N-140" value="Display &quot;Fifteen&quot;" style="shape=parallelogram;perimeter=parallelogramPerimeter;whiteSpace=wrap;html=1;fixedSize=1;" vertex="1" parent="mvioNwK95yMqdUQ73LqQ-36">
          <mxGeometry x="397" y="2410" width="120" height="60" as="geometry" />
        </mxCell>
        <mxCell id="kYYREl6K7aGs1Ha_kW6N-141" style="edgeStyle=orthogonalEdgeStyle;rounded=0;orthogonalLoop=1;jettySize=auto;html=1;" edge="1" parent="mvioNwK95yMqdUQ73LqQ-36" source="kYYREl6K7aGs1Ha_kW6N-143">
          <mxGeometry relative="1" as="geometry">
            <mxPoint x="318" y="2680" as="targetPoint" />
          </mxGeometry>
        </mxCell>
        <mxCell id="kYYREl6K7aGs1Ha_kW6N-142" style="edgeStyle=orthogonalEdgeStyle;rounded=0;orthogonalLoop=1;jettySize=auto;html=1;" edge="1" parent="mvioNwK95yMqdUQ73LqQ-36" source="kYYREl6K7aGs1Ha_kW6N-143">
          <mxGeometry relative="1" as="geometry">
            <mxPoint x="407" y="2580" as="targetPoint" />
          </mxGeometry>
        </mxCell>
        <mxCell id="kYYREl6K7aGs1Ha_kW6N-143" value="case 16" style="rhombus;whiteSpace=wrap;html=1;" vertex="1" parent="mvioNwK95yMqdUQ73LqQ-36">
          <mxGeometry x="278" y="2540" width="80" height="80" as="geometry" />
        </mxCell>
        <mxCell id="kYYREl6K7aGs1Ha_kW6N-144" style="edgeStyle=orthogonalEdgeStyle;rounded=0;orthogonalLoop=1;jettySize=auto;html=1;" edge="1" parent="mvioNwK95yMqdUQ73LqQ-36" source="kYYREl6K7aGs1Ha_kW6N-145">
          <mxGeometry relative="1" as="geometry">
            <mxPoint x="557" y="2580" as="targetPoint" />
          </mxGeometry>
        </mxCell>
        <mxCell id="kYYREl6K7aGs1Ha_kW6N-145" value="Display &quot;Sixteen&quot;" style="shape=parallelogram;perimeter=parallelogramPerimeter;whiteSpace=wrap;html=1;fixedSize=1;" vertex="1" parent="mvioNwK95yMqdUQ73LqQ-36">
          <mxGeometry x="397" y="2550" width="120" height="60" as="geometry" />
        </mxCell>
        <mxCell id="kYYREl6K7aGs1Ha_kW6N-146" style="edgeStyle=orthogonalEdgeStyle;rounded=0;orthogonalLoop=1;jettySize=auto;html=1;" edge="1" parent="mvioNwK95yMqdUQ73LqQ-36" source="kYYREl6K7aGs1Ha_kW6N-148">
          <mxGeometry relative="1" as="geometry">
            <mxPoint x="318" y="2820" as="targetPoint" />
          </mxGeometry>
        </mxCell>
        <mxCell id="kYYREl6K7aGs1Ha_kW6N-147" style="edgeStyle=orthogonalEdgeStyle;rounded=0;orthogonalLoop=1;jettySize=auto;html=1;" edge="1" parent="mvioNwK95yMqdUQ73LqQ-36" source="kYYREl6K7aGs1Ha_kW6N-148">
          <mxGeometry relative="1" as="geometry">
            <mxPoint x="407" y="2720" as="targetPoint" />
          </mxGeometry>
        </mxCell>
        <mxCell id="kYYREl6K7aGs1Ha_kW6N-148" value="case 17" style="rhombus;whiteSpace=wrap;html=1;" vertex="1" parent="mvioNwK95yMqdUQ73LqQ-36">
          <mxGeometry x="278" y="2680" width="80" height="80" as="geometry" />
        </mxCell>
        <mxCell id="kYYREl6K7aGs1Ha_kW6N-149" style="edgeStyle=orthogonalEdgeStyle;rounded=0;orthogonalLoop=1;jettySize=auto;html=1;" edge="1" parent="mvioNwK95yMqdUQ73LqQ-36" source="kYYREl6K7aGs1Ha_kW6N-150">
          <mxGeometry relative="1" as="geometry">
            <mxPoint x="557" y="2720" as="targetPoint" />
          </mxGeometry>
        </mxCell>
        <mxCell id="kYYREl6K7aGs1Ha_kW6N-150" value="Display &quot;Seventeen&quot;" style="shape=parallelogram;perimeter=parallelogramPerimeter;whiteSpace=wrap;html=1;fixedSize=1;" vertex="1" parent="mvioNwK95yMqdUQ73LqQ-36">
          <mxGeometry x="397" y="2690" width="120" height="60" as="geometry" />
        </mxCell>
        <mxCell id="kYYREl6K7aGs1Ha_kW6N-151" style="edgeStyle=orthogonalEdgeStyle;rounded=0;orthogonalLoop=1;jettySize=auto;html=1;" edge="1" parent="mvioNwK95yMqdUQ73LqQ-36" source="kYYREl6K7aGs1Ha_kW6N-153">
          <mxGeometry relative="1" as="geometry">
            <mxPoint x="318" y="2960" as="targetPoint" />
          </mxGeometry>
        </mxCell>
        <mxCell id="kYYREl6K7aGs1Ha_kW6N-152" style="edgeStyle=orthogonalEdgeStyle;rounded=0;orthogonalLoop=1;jettySize=auto;html=1;" edge="1" parent="mvioNwK95yMqdUQ73LqQ-36" source="kYYREl6K7aGs1Ha_kW6N-153">
          <mxGeometry relative="1" as="geometry">
            <mxPoint x="407" y="2860" as="targetPoint" />
          </mxGeometry>
        </mxCell>
        <mxCell id="kYYREl6K7aGs1Ha_kW6N-153" value="case 18" style="rhombus;whiteSpace=wrap;html=1;" vertex="1" parent="mvioNwK95yMqdUQ73LqQ-36">
          <mxGeometry x="278" y="2820" width="80" height="80" as="geometry" />
        </mxCell>
        <mxCell id="kYYREl6K7aGs1Ha_kW6N-154" style="edgeStyle=orthogonalEdgeStyle;rounded=0;orthogonalLoop=1;jettySize=auto;html=1;" edge="1" parent="mvioNwK95yMqdUQ73LqQ-36" source="kYYREl6K7aGs1Ha_kW6N-155">
          <mxGeometry relative="1" as="geometry">
            <mxPoint x="557" y="2860" as="targetPoint" />
          </mxGeometry>
        </mxCell>
        <mxCell id="kYYREl6K7aGs1Ha_kW6N-155" value="Display &quot;Eighteen&quot;" style="shape=parallelogram;perimeter=parallelogramPerimeter;whiteSpace=wrap;html=1;fixedSize=1;" vertex="1" parent="mvioNwK95yMqdUQ73LqQ-36">
          <mxGeometry x="397" y="2830" width="120" height="60" as="geometry" />
        </mxCell>
        <mxCell id="kYYREl6K7aGs1Ha_kW6N-156" style="edgeStyle=orthogonalEdgeStyle;rounded=0;orthogonalLoop=1;jettySize=auto;html=1;" edge="1" parent="mvioNwK95yMqdUQ73LqQ-36" source="kYYREl6K7aGs1Ha_kW6N-158">
          <mxGeometry relative="1" as="geometry">
            <mxPoint x="318" y="3100" as="targetPoint" />
          </mxGeometry>
        </mxCell>
        <mxCell id="kYYREl6K7aGs1Ha_kW6N-157" style="edgeStyle=orthogonalEdgeStyle;rounded=0;orthogonalLoop=1;jettySize=auto;html=1;" edge="1" parent="mvioNwK95yMqdUQ73LqQ-36" source="kYYREl6K7aGs1Ha_kW6N-158">
          <mxGeometry relative="1" as="geometry">
            <mxPoint x="407" y="3000" as="targetPoint" />
          </mxGeometry>
        </mxCell>
        <mxCell id="kYYREl6K7aGs1Ha_kW6N-158" value="case 19" style="rhombus;whiteSpace=wrap;html=1;" vertex="1" parent="mvioNwK95yMqdUQ73LqQ-36">
          <mxGeometry x="278" y="2960" width="80" height="80" as="geometry" />
        </mxCell>
        <mxCell id="kYYREl6K7aGs1Ha_kW6N-159" style="edgeStyle=orthogonalEdgeStyle;rounded=0;orthogonalLoop=1;jettySize=auto;html=1;" edge="1" parent="mvioNwK95yMqdUQ73LqQ-36" source="kYYREl6K7aGs1Ha_kW6N-160">
          <mxGeometry relative="1" as="geometry">
            <mxPoint x="557" y="3000" as="targetPoint" />
          </mxGeometry>
        </mxCell>
        <mxCell id="kYYREl6K7aGs1Ha_kW6N-160" value="Display &quot;Nineteen&quot;" style="shape=parallelogram;perimeter=parallelogramPerimeter;whiteSpace=wrap;html=1;fixedSize=1;" vertex="1" parent="mvioNwK95yMqdUQ73LqQ-36">
          <mxGeometry x="397" y="2970" width="120" height="60" as="geometry" />
        </mxCell>
        <mxCell id="kYYREl6K7aGs1Ha_kW6N-228" value="" style="endArrow=classic;html=1;rounded=0;" edge="1" parent="mvioNwK95yMqdUQ73LqQ-36">
          <mxGeometry width="50" height="50" relative="1" as="geometry">
            <mxPoint x="560" y="430" as="sourcePoint" />
            <mxPoint x="560" y="4840" as="targetPoint" />
          </mxGeometry>
        </mxCell>
        <mxCell id="kYYREl6K7aGs1Ha_kW6N-231" value="&lt;font data-font-src=&quot;https://fonts.googleapis.com/css?family=Sarabun&quot; face=&quot;Sarabun&quot;&gt;END&lt;/font&gt;" style="ellipse;whiteSpace=wrap;html=1;" vertex="1" parent="mvioNwK95yMqdUQ73LqQ-36">
          <mxGeometry x="494" y="4840" width="130" height="30" as="geometry" />
        </mxCell>
        <mxCell id="kYYREl6K7aGs1Ha_kW6N-51" style="edgeStyle=orthogonalEdgeStyle;rounded=0;orthogonalLoop=1;jettySize=auto;html=1;" edge="1" parent="WIyWlLk6GJQsqaUBKTNV-1" source="kYYREl6K7aGs1Ha_kW6N-53">
          <mxGeometry relative="1" as="geometry">
            <mxPoint x="-420" y="1894" as="targetPoint" />
          </mxGeometry>
        </mxCell>
        <mxCell id="kYYREl6K7aGs1Ha_kW6N-52" style="edgeStyle=orthogonalEdgeStyle;rounded=0;orthogonalLoop=1;jettySize=auto;html=1;" edge="1" parent="WIyWlLk6GJQsqaUBKTNV-1" source="kYYREl6K7aGs1Ha_kW6N-53">
          <mxGeometry relative="1" as="geometry">
            <mxPoint x="-331" y="1794" as="targetPoint" />
          </mxGeometry>
        </mxCell>
        <mxCell id="kYYREl6K7aGs1Ha_kW6N-53" value="case 10" style="rhombus;whiteSpace=wrap;html=1;" vertex="1" parent="WIyWlLk6GJQsqaUBKTNV-1">
          <mxGeometry x="-460" y="1754" width="80" height="80" as="geometry" />
        </mxCell>
        <mxCell id="kYYREl6K7aGs1Ha_kW6N-54" style="edgeStyle=orthogonalEdgeStyle;rounded=0;orthogonalLoop=1;jettySize=auto;html=1;" edge="1" parent="WIyWlLk6GJQsqaUBKTNV-1" source="kYYREl6K7aGs1Ha_kW6N-55">
          <mxGeometry relative="1" as="geometry">
            <mxPoint x="-181" y="1794" as="targetPoint" />
          </mxGeometry>
        </mxCell>
        <mxCell id="kYYREl6K7aGs1Ha_kW6N-55" value="Display &quot;Ten&quot;" style="shape=parallelogram;perimeter=parallelogramPerimeter;whiteSpace=wrap;html=1;fixedSize=1;" vertex="1" parent="WIyWlLk6GJQsqaUBKTNV-1">
          <mxGeometry x="-341" y="1764" width="120" height="60" as="geometry" />
        </mxCell>
        <mxCell id="kYYREl6K7aGs1Ha_kW6N-161" style="edgeStyle=orthogonalEdgeStyle;rounded=0;orthogonalLoop=1;jettySize=auto;html=1;" edge="1" parent="WIyWlLk6GJQsqaUBKTNV-1" source="kYYREl6K7aGs1Ha_kW6N-163">
          <mxGeometry relative="1" as="geometry">
            <mxPoint x="-422" y="3300" as="targetPoint" />
          </mxGeometry>
        </mxCell>
        <mxCell id="kYYREl6K7aGs1Ha_kW6N-162" style="edgeStyle=orthogonalEdgeStyle;rounded=0;orthogonalLoop=1;jettySize=auto;html=1;" edge="1" parent="WIyWlLk6GJQsqaUBKTNV-1" source="kYYREl6K7aGs1Ha_kW6N-163">
          <mxGeometry relative="1" as="geometry">
            <mxPoint x="-333" y="3200" as="targetPoint" />
          </mxGeometry>
        </mxCell>
        <mxCell id="kYYREl6K7aGs1Ha_kW6N-163" value="case 20" style="rhombus;whiteSpace=wrap;html=1;" vertex="1" parent="WIyWlLk6GJQsqaUBKTNV-1">
          <mxGeometry x="-462" y="3160" width="80" height="80" as="geometry" />
        </mxCell>
        <mxCell id="kYYREl6K7aGs1Ha_kW6N-164" style="edgeStyle=orthogonalEdgeStyle;rounded=0;orthogonalLoop=1;jettySize=auto;html=1;" edge="1" parent="WIyWlLk6GJQsqaUBKTNV-1" source="kYYREl6K7aGs1Ha_kW6N-165">
          <mxGeometry relative="1" as="geometry">
            <mxPoint x="-183" y="3200" as="targetPoint" />
          </mxGeometry>
        </mxCell>
        <mxCell id="kYYREl6K7aGs1Ha_kW6N-165" value="Display &quot;Twenty&quot;" style="shape=parallelogram;perimeter=parallelogramPerimeter;whiteSpace=wrap;html=1;fixedSize=1;" vertex="1" parent="WIyWlLk6GJQsqaUBKTNV-1">
          <mxGeometry x="-343" y="3170" width="120" height="60" as="geometry" />
        </mxCell>
        <mxCell id="kYYREl6K7aGs1Ha_kW6N-166" style="edgeStyle=orthogonalEdgeStyle;rounded=0;orthogonalLoop=1;jettySize=auto;html=1;" edge="1" parent="WIyWlLk6GJQsqaUBKTNV-1" source="kYYREl6K7aGs1Ha_kW6N-168">
          <mxGeometry relative="1" as="geometry">
            <mxPoint x="-422" y="3440" as="targetPoint" />
          </mxGeometry>
        </mxCell>
        <mxCell id="kYYREl6K7aGs1Ha_kW6N-167" style="edgeStyle=orthogonalEdgeStyle;rounded=0;orthogonalLoop=1;jettySize=auto;html=1;" edge="1" parent="WIyWlLk6GJQsqaUBKTNV-1" source="kYYREl6K7aGs1Ha_kW6N-168">
          <mxGeometry relative="1" as="geometry">
            <mxPoint x="-333" y="3340" as="targetPoint" />
          </mxGeometry>
        </mxCell>
        <mxCell id="kYYREl6K7aGs1Ha_kW6N-168" value="case 21" style="rhombus;whiteSpace=wrap;html=1;" vertex="1" parent="WIyWlLk6GJQsqaUBKTNV-1">
          <mxGeometry x="-462" y="3300" width="80" height="80" as="geometry" />
        </mxCell>
        <mxCell id="kYYREl6K7aGs1Ha_kW6N-169" style="edgeStyle=orthogonalEdgeStyle;rounded=0;orthogonalLoop=1;jettySize=auto;html=1;" edge="1" parent="WIyWlLk6GJQsqaUBKTNV-1" source="kYYREl6K7aGs1Ha_kW6N-170">
          <mxGeometry relative="1" as="geometry">
            <mxPoint x="-183" y="3340" as="targetPoint" />
          </mxGeometry>
        </mxCell>
        <mxCell id="kYYREl6K7aGs1Ha_kW6N-170" value="Display &quot;Twenty-One&quot;" style="shape=parallelogram;perimeter=parallelogramPerimeter;whiteSpace=wrap;html=1;fixedSize=1;" vertex="1" parent="WIyWlLk6GJQsqaUBKTNV-1">
          <mxGeometry x="-343" y="3310" width="120" height="60" as="geometry" />
        </mxCell>
        <mxCell id="kYYREl6K7aGs1Ha_kW6N-171" style="edgeStyle=orthogonalEdgeStyle;rounded=0;orthogonalLoop=1;jettySize=auto;html=1;" edge="1" parent="WIyWlLk6GJQsqaUBKTNV-1" source="kYYREl6K7aGs1Ha_kW6N-173">
          <mxGeometry relative="1" as="geometry">
            <mxPoint x="-422" y="3580" as="targetPoint" />
          </mxGeometry>
        </mxCell>
        <mxCell id="kYYREl6K7aGs1Ha_kW6N-172" style="edgeStyle=orthogonalEdgeStyle;rounded=0;orthogonalLoop=1;jettySize=auto;html=1;" edge="1" parent="WIyWlLk6GJQsqaUBKTNV-1" source="kYYREl6K7aGs1Ha_kW6N-173">
          <mxGeometry relative="1" as="geometry">
            <mxPoint x="-333" y="3480" as="targetPoint" />
          </mxGeometry>
        </mxCell>
        <mxCell id="kYYREl6K7aGs1Ha_kW6N-173" value="case 22" style="rhombus;whiteSpace=wrap;html=1;" vertex="1" parent="WIyWlLk6GJQsqaUBKTNV-1">
          <mxGeometry x="-462" y="3440" width="80" height="80" as="geometry" />
        </mxCell>
        <mxCell id="kYYREl6K7aGs1Ha_kW6N-174" style="edgeStyle=orthogonalEdgeStyle;rounded=0;orthogonalLoop=1;jettySize=auto;html=1;" edge="1" parent="WIyWlLk6GJQsqaUBKTNV-1" source="kYYREl6K7aGs1Ha_kW6N-175">
          <mxGeometry relative="1" as="geometry">
            <mxPoint x="-183" y="3480" as="targetPoint" />
          </mxGeometry>
        </mxCell>
        <mxCell id="kYYREl6K7aGs1Ha_kW6N-175" value="Display &quot;Twenty-Two&quot;" style="shape=parallelogram;perimeter=parallelogramPerimeter;whiteSpace=wrap;html=1;fixedSize=1;" vertex="1" parent="WIyWlLk6GJQsqaUBKTNV-1">
          <mxGeometry x="-343" y="3450" width="120" height="60" as="geometry" />
        </mxCell>
        <mxCell id="kYYREl6K7aGs1Ha_kW6N-181" style="edgeStyle=orthogonalEdgeStyle;rounded=0;orthogonalLoop=1;jettySize=auto;html=1;" edge="1" parent="WIyWlLk6GJQsqaUBKTNV-1" source="kYYREl6K7aGs1Ha_kW6N-183">
          <mxGeometry relative="1" as="geometry">
            <mxPoint x="-422" y="3720" as="targetPoint" />
          </mxGeometry>
        </mxCell>
        <mxCell id="kYYREl6K7aGs1Ha_kW6N-182" style="edgeStyle=orthogonalEdgeStyle;rounded=0;orthogonalLoop=1;jettySize=auto;html=1;" edge="1" parent="WIyWlLk6GJQsqaUBKTNV-1" source="kYYREl6K7aGs1Ha_kW6N-183">
          <mxGeometry relative="1" as="geometry">
            <mxPoint x="-333" y="3620" as="targetPoint" />
          </mxGeometry>
        </mxCell>
        <mxCell id="kYYREl6K7aGs1Ha_kW6N-183" value="case 23" style="rhombus;whiteSpace=wrap;html=1;" vertex="1" parent="WIyWlLk6GJQsqaUBKTNV-1">
          <mxGeometry x="-462" y="3580" width="80" height="80" as="geometry" />
        </mxCell>
        <mxCell id="kYYREl6K7aGs1Ha_kW6N-184" style="edgeStyle=orthogonalEdgeStyle;rounded=0;orthogonalLoop=1;jettySize=auto;html=1;" edge="1" parent="WIyWlLk6GJQsqaUBKTNV-1" source="kYYREl6K7aGs1Ha_kW6N-185">
          <mxGeometry relative="1" as="geometry">
            <mxPoint x="-183" y="3620" as="targetPoint" />
          </mxGeometry>
        </mxCell>
        <mxCell id="kYYREl6K7aGs1Ha_kW6N-185" value="Display &quot;Twenty-Three&quot;" style="shape=parallelogram;perimeter=parallelogramPerimeter;whiteSpace=wrap;html=1;fixedSize=1;" vertex="1" parent="WIyWlLk6GJQsqaUBKTNV-1">
          <mxGeometry x="-343" y="3590" width="120" height="60" as="geometry" />
        </mxCell>
        <mxCell id="kYYREl6K7aGs1Ha_kW6N-186" style="edgeStyle=orthogonalEdgeStyle;rounded=0;orthogonalLoop=1;jettySize=auto;html=1;" edge="1" parent="WIyWlLk6GJQsqaUBKTNV-1" source="kYYREl6K7aGs1Ha_kW6N-188">
          <mxGeometry relative="1" as="geometry">
            <mxPoint x="-422" y="3860" as="targetPoint" />
          </mxGeometry>
        </mxCell>
        <mxCell id="kYYREl6K7aGs1Ha_kW6N-187" style="edgeStyle=orthogonalEdgeStyle;rounded=0;orthogonalLoop=1;jettySize=auto;html=1;" edge="1" parent="WIyWlLk6GJQsqaUBKTNV-1" source="kYYREl6K7aGs1Ha_kW6N-188">
          <mxGeometry relative="1" as="geometry">
            <mxPoint x="-333" y="3760" as="targetPoint" />
          </mxGeometry>
        </mxCell>
        <mxCell id="kYYREl6K7aGs1Ha_kW6N-188" value="case 24" style="rhombus;whiteSpace=wrap;html=1;" vertex="1" parent="WIyWlLk6GJQsqaUBKTNV-1">
          <mxGeometry x="-462" y="3720" width="80" height="80" as="geometry" />
        </mxCell>
        <mxCell id="kYYREl6K7aGs1Ha_kW6N-189" style="edgeStyle=orthogonalEdgeStyle;rounded=0;orthogonalLoop=1;jettySize=auto;html=1;" edge="1" parent="WIyWlLk6GJQsqaUBKTNV-1" source="kYYREl6K7aGs1Ha_kW6N-190">
          <mxGeometry relative="1" as="geometry">
            <mxPoint x="-183" y="3760" as="targetPoint" />
          </mxGeometry>
        </mxCell>
        <mxCell id="kYYREl6K7aGs1Ha_kW6N-190" value="Display &quot; Twenty-Four&quot;" style="shape=parallelogram;perimeter=parallelogramPerimeter;whiteSpace=wrap;html=1;fixedSize=1;" vertex="1" parent="WIyWlLk6GJQsqaUBKTNV-1">
          <mxGeometry x="-343" y="3730" width="120" height="60" as="geometry" />
        </mxCell>
        <mxCell id="kYYREl6K7aGs1Ha_kW6N-191" style="edgeStyle=orthogonalEdgeStyle;rounded=0;orthogonalLoop=1;jettySize=auto;html=1;" edge="1" parent="WIyWlLk6GJQsqaUBKTNV-1" source="kYYREl6K7aGs1Ha_kW6N-193">
          <mxGeometry relative="1" as="geometry">
            <mxPoint x="-422" y="3999" as="targetPoint" />
          </mxGeometry>
        </mxCell>
        <mxCell id="kYYREl6K7aGs1Ha_kW6N-192" style="edgeStyle=orthogonalEdgeStyle;rounded=0;orthogonalLoop=1;jettySize=auto;html=1;" edge="1" parent="WIyWlLk6GJQsqaUBKTNV-1" source="kYYREl6K7aGs1Ha_kW6N-193">
          <mxGeometry relative="1" as="geometry">
            <mxPoint x="-333" y="3899" as="targetPoint" />
          </mxGeometry>
        </mxCell>
        <mxCell id="kYYREl6K7aGs1Ha_kW6N-193" value="case 25" style="rhombus;whiteSpace=wrap;html=1;" vertex="1" parent="WIyWlLk6GJQsqaUBKTNV-1">
          <mxGeometry x="-462" y="3859" width="80" height="80" as="geometry" />
        </mxCell>
        <mxCell id="kYYREl6K7aGs1Ha_kW6N-194" style="edgeStyle=orthogonalEdgeStyle;rounded=0;orthogonalLoop=1;jettySize=auto;html=1;" edge="1" parent="WIyWlLk6GJQsqaUBKTNV-1" source="kYYREl6K7aGs1Ha_kW6N-195">
          <mxGeometry relative="1" as="geometry">
            <mxPoint x="-183" y="3899" as="targetPoint" />
          </mxGeometry>
        </mxCell>
        <mxCell id="kYYREl6K7aGs1Ha_kW6N-195" value="Display &quot;Twenty-Five&quot;" style="shape=parallelogram;perimeter=parallelogramPerimeter;whiteSpace=wrap;html=1;fixedSize=1;" vertex="1" parent="WIyWlLk6GJQsqaUBKTNV-1">
          <mxGeometry x="-343" y="3869" width="120" height="60" as="geometry" />
        </mxCell>
        <mxCell id="kYYREl6K7aGs1Ha_kW6N-196" style="edgeStyle=orthogonalEdgeStyle;rounded=0;orthogonalLoop=1;jettySize=auto;html=1;" edge="1" parent="WIyWlLk6GJQsqaUBKTNV-1" source="kYYREl6K7aGs1Ha_kW6N-198">
          <mxGeometry relative="1" as="geometry">
            <mxPoint x="-422" y="4139" as="targetPoint" />
          </mxGeometry>
        </mxCell>
        <mxCell id="kYYREl6K7aGs1Ha_kW6N-197" style="edgeStyle=orthogonalEdgeStyle;rounded=0;orthogonalLoop=1;jettySize=auto;html=1;" edge="1" parent="WIyWlLk6GJQsqaUBKTNV-1" source="kYYREl6K7aGs1Ha_kW6N-198">
          <mxGeometry relative="1" as="geometry">
            <mxPoint x="-333" y="4039" as="targetPoint" />
          </mxGeometry>
        </mxCell>
        <mxCell id="kYYREl6K7aGs1Ha_kW6N-198" value="case 26" style="rhombus;whiteSpace=wrap;html=1;" vertex="1" parent="WIyWlLk6GJQsqaUBKTNV-1">
          <mxGeometry x="-462" y="3999" width="80" height="80" as="geometry" />
        </mxCell>
        <mxCell id="kYYREl6K7aGs1Ha_kW6N-199" style="edgeStyle=orthogonalEdgeStyle;rounded=0;orthogonalLoop=1;jettySize=auto;html=1;" edge="1" parent="WIyWlLk6GJQsqaUBKTNV-1" source="kYYREl6K7aGs1Ha_kW6N-200">
          <mxGeometry relative="1" as="geometry">
            <mxPoint x="-183" y="4039" as="targetPoint" />
          </mxGeometry>
        </mxCell>
        <mxCell id="kYYREl6K7aGs1Ha_kW6N-200" value="Display &quot;Twenty-Six&quot;" style="shape=parallelogram;perimeter=parallelogramPerimeter;whiteSpace=wrap;html=1;fixedSize=1;" vertex="1" parent="WIyWlLk6GJQsqaUBKTNV-1">
          <mxGeometry x="-343" y="4009" width="120" height="60" as="geometry" />
        </mxCell>
        <mxCell id="kYYREl6K7aGs1Ha_kW6N-201" style="edgeStyle=orthogonalEdgeStyle;rounded=0;orthogonalLoop=1;jettySize=auto;html=1;" edge="1" parent="WIyWlLk6GJQsqaUBKTNV-1" source="kYYREl6K7aGs1Ha_kW6N-203">
          <mxGeometry relative="1" as="geometry">
            <mxPoint x="-422" y="4280" as="targetPoint" />
          </mxGeometry>
        </mxCell>
        <mxCell id="kYYREl6K7aGs1Ha_kW6N-202" style="edgeStyle=orthogonalEdgeStyle;rounded=0;orthogonalLoop=1;jettySize=auto;html=1;" edge="1" parent="WIyWlLk6GJQsqaUBKTNV-1" source="kYYREl6K7aGs1Ha_kW6N-203">
          <mxGeometry relative="1" as="geometry">
            <mxPoint x="-333" y="4180" as="targetPoint" />
          </mxGeometry>
        </mxCell>
        <mxCell id="kYYREl6K7aGs1Ha_kW6N-203" value="case 27" style="rhombus;whiteSpace=wrap;html=1;" vertex="1" parent="WIyWlLk6GJQsqaUBKTNV-1">
          <mxGeometry x="-462" y="4140" width="80" height="80" as="geometry" />
        </mxCell>
        <mxCell id="kYYREl6K7aGs1Ha_kW6N-204" style="edgeStyle=orthogonalEdgeStyle;rounded=0;orthogonalLoop=1;jettySize=auto;html=1;" edge="1" parent="WIyWlLk6GJQsqaUBKTNV-1" source="kYYREl6K7aGs1Ha_kW6N-205">
          <mxGeometry relative="1" as="geometry">
            <mxPoint x="-183" y="4180" as="targetPoint" />
          </mxGeometry>
        </mxCell>
        <mxCell id="kYYREl6K7aGs1Ha_kW6N-205" value="Display &quot;Twenty-Seven&quot;" style="shape=parallelogram;perimeter=parallelogramPerimeter;whiteSpace=wrap;html=1;fixedSize=1;" vertex="1" parent="WIyWlLk6GJQsqaUBKTNV-1">
          <mxGeometry x="-343" y="4150" width="120" height="60" as="geometry" />
        </mxCell>
        <mxCell id="kYYREl6K7aGs1Ha_kW6N-206" style="edgeStyle=orthogonalEdgeStyle;rounded=0;orthogonalLoop=1;jettySize=auto;html=1;" edge="1" parent="WIyWlLk6GJQsqaUBKTNV-1" source="kYYREl6K7aGs1Ha_kW6N-208">
          <mxGeometry relative="1" as="geometry">
            <mxPoint x="-422" y="4420" as="targetPoint" />
          </mxGeometry>
        </mxCell>
        <mxCell id="kYYREl6K7aGs1Ha_kW6N-207" style="edgeStyle=orthogonalEdgeStyle;rounded=0;orthogonalLoop=1;jettySize=auto;html=1;" edge="1" parent="WIyWlLk6GJQsqaUBKTNV-1" source="kYYREl6K7aGs1Ha_kW6N-208">
          <mxGeometry relative="1" as="geometry">
            <mxPoint x="-333" y="4320" as="targetPoint" />
          </mxGeometry>
        </mxCell>
        <mxCell id="kYYREl6K7aGs1Ha_kW6N-208" value="case 28" style="rhombus;whiteSpace=wrap;html=1;" vertex="1" parent="WIyWlLk6GJQsqaUBKTNV-1">
          <mxGeometry x="-462" y="4280" width="80" height="80" as="geometry" />
        </mxCell>
        <mxCell id="kYYREl6K7aGs1Ha_kW6N-209" style="edgeStyle=orthogonalEdgeStyle;rounded=0;orthogonalLoop=1;jettySize=auto;html=1;" edge="1" parent="WIyWlLk6GJQsqaUBKTNV-1" source="kYYREl6K7aGs1Ha_kW6N-210">
          <mxGeometry relative="1" as="geometry">
            <mxPoint x="-183" y="4320" as="targetPoint" />
          </mxGeometry>
        </mxCell>
        <mxCell id="kYYREl6K7aGs1Ha_kW6N-210" value="Display &quot;Twenty-Eight&quot;" style="shape=parallelogram;perimeter=parallelogramPerimeter;whiteSpace=wrap;html=1;fixedSize=1;" vertex="1" parent="WIyWlLk6GJQsqaUBKTNV-1">
          <mxGeometry x="-343" y="4290" width="120" height="60" as="geometry" />
        </mxCell>
        <mxCell id="kYYREl6K7aGs1Ha_kW6N-211" style="edgeStyle=orthogonalEdgeStyle;rounded=0;orthogonalLoop=1;jettySize=auto;html=1;" edge="1" parent="WIyWlLk6GJQsqaUBKTNV-1" source="kYYREl6K7aGs1Ha_kW6N-213">
          <mxGeometry relative="1" as="geometry">
            <mxPoint x="-422" y="4560" as="targetPoint" />
          </mxGeometry>
        </mxCell>
        <mxCell id="kYYREl6K7aGs1Ha_kW6N-212" style="edgeStyle=orthogonalEdgeStyle;rounded=0;orthogonalLoop=1;jettySize=auto;html=1;" edge="1" parent="WIyWlLk6GJQsqaUBKTNV-1" source="kYYREl6K7aGs1Ha_kW6N-213">
          <mxGeometry relative="1" as="geometry">
            <mxPoint x="-333" y="4460" as="targetPoint" />
          </mxGeometry>
        </mxCell>
        <mxCell id="kYYREl6K7aGs1Ha_kW6N-213" value="case 29" style="rhombus;whiteSpace=wrap;html=1;" vertex="1" parent="WIyWlLk6GJQsqaUBKTNV-1">
          <mxGeometry x="-462" y="4420" width="80" height="80" as="geometry" />
        </mxCell>
        <mxCell id="kYYREl6K7aGs1Ha_kW6N-214" style="edgeStyle=orthogonalEdgeStyle;rounded=0;orthogonalLoop=1;jettySize=auto;html=1;" edge="1" parent="WIyWlLk6GJQsqaUBKTNV-1" source="kYYREl6K7aGs1Ha_kW6N-215">
          <mxGeometry relative="1" as="geometry">
            <mxPoint x="-183" y="4460" as="targetPoint" />
          </mxGeometry>
        </mxCell>
        <mxCell id="kYYREl6K7aGs1Ha_kW6N-215" value="Display &quot;Twenty-Nine&quot;" style="shape=parallelogram;perimeter=parallelogramPerimeter;whiteSpace=wrap;html=1;fixedSize=1;" vertex="1" parent="WIyWlLk6GJQsqaUBKTNV-1">
          <mxGeometry x="-343" y="4430" width="120" height="60" as="geometry" />
        </mxCell>
        <mxCell id="kYYREl6K7aGs1Ha_kW6N-216" style="edgeStyle=orthogonalEdgeStyle;rounded=0;orthogonalLoop=1;jettySize=auto;html=1;" edge="1" parent="WIyWlLk6GJQsqaUBKTNV-1" source="kYYREl6K7aGs1Ha_kW6N-218">
          <mxGeometry relative="1" as="geometry">
            <mxPoint x="-422" y="4700" as="targetPoint" />
          </mxGeometry>
        </mxCell>
        <mxCell id="kYYREl6K7aGs1Ha_kW6N-217" style="edgeStyle=orthogonalEdgeStyle;rounded=0;orthogonalLoop=1;jettySize=auto;html=1;" edge="1" parent="WIyWlLk6GJQsqaUBKTNV-1" source="kYYREl6K7aGs1Ha_kW6N-218">
          <mxGeometry relative="1" as="geometry">
            <mxPoint x="-333" y="4600" as="targetPoint" />
          </mxGeometry>
        </mxCell>
        <mxCell id="kYYREl6K7aGs1Ha_kW6N-218" value="case 30" style="rhombus;whiteSpace=wrap;html=1;" vertex="1" parent="WIyWlLk6GJQsqaUBKTNV-1">
          <mxGeometry x="-462" y="4560" width="80" height="80" as="geometry" />
        </mxCell>
        <mxCell id="kYYREl6K7aGs1Ha_kW6N-219" style="edgeStyle=orthogonalEdgeStyle;rounded=0;orthogonalLoop=1;jettySize=auto;html=1;" edge="1" parent="WIyWlLk6GJQsqaUBKTNV-1" source="kYYREl6K7aGs1Ha_kW6N-220">
          <mxGeometry relative="1" as="geometry">
            <mxPoint x="-183" y="4600" as="targetPoint" />
          </mxGeometry>
        </mxCell>
        <mxCell id="kYYREl6K7aGs1Ha_kW6N-220" value="Display &quot;Thirty&quot;" style="shape=parallelogram;perimeter=parallelogramPerimeter;whiteSpace=wrap;html=1;fixedSize=1;" vertex="1" parent="WIyWlLk6GJQsqaUBKTNV-1">
          <mxGeometry x="-343" y="4570" width="120" height="60" as="geometry" />
        </mxCell>
        <mxCell id="kYYREl6K7aGs1Ha_kW6N-222" style="edgeStyle=orthogonalEdgeStyle;rounded=0;orthogonalLoop=1;jettySize=auto;html=1;" edge="1" parent="WIyWlLk6GJQsqaUBKTNV-1" source="kYYREl6K7aGs1Ha_kW6N-223">
          <mxGeometry relative="1" as="geometry">
            <mxPoint x="-334" y="4739" as="targetPoint" />
          </mxGeometry>
        </mxCell>
        <mxCell id="kYYREl6K7aGs1Ha_kW6N-223" value="Default" style="rhombus;whiteSpace=wrap;html=1;" vertex="1" parent="WIyWlLk6GJQsqaUBKTNV-1">
          <mxGeometry x="-463" y="4699" width="80" height="80" as="geometry" />
        </mxCell>
        <mxCell id="kYYREl6K7aGs1Ha_kW6N-230" style="edgeStyle=orthogonalEdgeStyle;rounded=0;orthogonalLoop=1;jettySize=auto;html=1;" edge="1" parent="WIyWlLk6GJQsqaUBKTNV-1" source="kYYREl6K7aGs1Ha_kW6N-225">
          <mxGeometry relative="1" as="geometry">
            <mxPoint x="-180" y="4739" as="targetPoint" />
          </mxGeometry>
        </mxCell>
        <mxCell id="kYYREl6K7aGs1Ha_kW6N-225" value="Display &quot;Input number again between 0 - 30&quot;" style="shape=parallelogram;perimeter=parallelogramPerimeter;whiteSpace=wrap;html=1;fixedSize=1;" vertex="1" parent="WIyWlLk6GJQsqaUBKTNV-1">
          <mxGeometry x="-344" y="4709" width="144" height="60" as="geometry" />
        </mxCell>
      </root>
    </mxGraphModel>
  </diagram>
</mxfile>
